<svg width="196" height="189" viewBox="0 0 196 189" fill="none" xmlns="http://www.w3.org/2000/svg">
<rect width="195.918" height="188.939" rx="14.8767" fill="white"/>
<path d="M27.6913 40.6556V30.8556H33.6553V31.8216H28.8673V35.2656H32.9413V36.2176H28.8673V40.6556H27.6913ZM37.543 40.8236C36.8897 40.8236 36.3017 40.6742 35.779 40.3756C35.2563 40.0769 34.841 39.6569 34.533 39.1156C34.2343 38.5649 34.085 37.9209 34.085 37.1836C34.085 36.4462 34.239 35.8069 34.547 35.2656C34.855 34.7149 35.2703 34.2902 35.793 33.9916C36.325 33.6929 36.9177 33.5436 37.571 33.5436C38.2243 33.5436 38.8123 33.6929 39.335 33.9916C39.8577 34.2902 40.2683 34.7149 40.567 35.2656C40.875 35.8069 41.029 36.4462 41.029 37.1836C41.029 37.9209 40.875 38.5649 40.567 39.1156C40.259 39.6569 39.839 40.0769 39.307 40.3756C38.7843 40.6742 38.1963 40.8236 37.543 40.8236ZM37.543 39.8156C37.9443 39.8156 38.3177 39.7176 38.663 39.5216C39.0083 39.3256 39.2883 39.0316 39.503 38.6396C39.7177 38.2476 39.825 37.7622 39.825 37.1836C39.825 36.6049 39.7177 36.1196 39.503 35.7276C39.2977 35.3356 39.0223 35.0416 38.677 34.8456C38.3317 34.6496 37.963 34.5516 37.571 34.5516C37.1697 34.5516 36.7963 34.6496 36.451 34.8456C36.1057 35.0416 35.8257 35.3356 35.611 35.7276C35.3963 36.1196 35.289 36.6049 35.289 37.1836C35.289 37.7622 35.3963 38.2476 35.611 38.6396C35.8257 39.0316 36.101 39.3256 36.437 39.5216C36.7823 39.7176 37.151 39.8156 37.543 39.8156ZM42.2442 40.6556V30.5756H43.4202V40.6556H42.2442ZM44.9277 40.6556V30.5756H46.1037V40.6556H44.9277ZM50.7752 40.8236C50.1219 40.8236 49.5339 40.6742 49.0112 40.3756C48.4885 40.0769 48.0732 39.6569 47.7652 39.1156C47.4665 38.5649 47.3172 37.9209 47.3172 37.1836C47.3172 36.4462 47.4712 35.8069 47.7792 35.2656C48.0872 34.7149 48.5025 34.2902 49.0252 33.9916C49.5572 33.6929 50.1499 33.5436 50.8032 33.5436C51.4565 33.5436 52.0445 33.6929 52.5672 33.9916C53.0899 34.2902 53.5005 34.7149 53.7992 35.2656C54.1072 35.8069 54.2612 36.4462 54.2612 37.1836C54.2612 37.9209 54.1072 38.5649 53.7992 39.1156C53.4912 39.6569 53.0712 40.0769 52.5392 40.3756C52.0165 40.6742 51.4285 40.8236 50.7752 40.8236ZM50.7752 39.8156C51.1765 39.8156 51.5499 39.7176 51.8952 39.5216C52.2405 39.3256 52.5205 39.0316 52.7352 38.6396C52.9499 38.2476 53.0572 37.7622 53.0572 37.1836C53.0572 36.6049 52.9499 36.1196 52.7352 35.7276C52.5299 35.3356 52.2545 35.0416 51.9092 34.8456C51.5639 34.6496 51.1952 34.5516 50.8032 34.5516C50.4019 34.5516 50.0285 34.6496 49.6832 34.8456C49.3379 35.0416 49.0579 35.3356 48.8432 35.7276C48.6285 36.1196 48.5212 36.6049 48.5212 37.1836C48.5212 37.7622 48.6285 38.2476 48.8432 38.6396C49.0579 39.0316 49.3332 39.3256 49.6692 39.5216C50.0145 39.7176 50.3832 39.8156 50.7752 39.8156ZM56.6166 40.6556L54.5866 33.7116H55.7626L57.2326 39.1576L58.8566 33.7116H60.1866L61.8246 39.1576L63.2806 33.7116H64.4706L62.4406 40.6556H61.2366L59.5286 34.9296L57.8206 40.6556H56.6166ZM68.2135 40.8236C67.5508 40.8236 66.9628 40.6742 66.4495 40.3756C65.9362 40.0676 65.5302 39.6429 65.2315 39.1016C64.9422 38.5602 64.7975 37.9209 64.7975 37.1836C64.7975 36.4556 64.9422 35.8209 65.2315 35.2796C65.5208 34.7289 65.9222 34.3042 66.4355 34.0056C66.9582 33.6976 67.5602 33.5436 68.2415 33.5436C68.9135 33.5436 69.4922 33.6976 69.9775 34.0056C70.4722 34.3042 70.8502 34.7009 71.1115 35.1956C71.3728 35.6902 71.5035 36.2222 71.5035 36.7916C71.5035 36.8942 71.4988 36.9969 71.4895 37.0996C71.4895 37.2022 71.4895 37.3189 71.4895 37.4496H65.9595C65.9875 37.9816 66.1088 38.4249 66.3235 38.7796C66.5475 39.1249 66.8228 39.3862 67.1495 39.5636C67.4855 39.7409 67.8402 39.8296 68.2135 39.8296C68.6988 39.8296 69.1048 39.7176 69.4315 39.4936C69.7582 39.2696 69.9962 38.9662 70.1455 38.5836H71.3075C71.1208 39.2276 70.7615 39.7642 70.2295 40.1936C69.7068 40.6136 69.0348 40.8236 68.2135 40.8236ZM68.2135 34.5376C67.6535 34.5376 67.1542 34.7102 66.7155 35.0556C66.2862 35.3916 66.0388 35.8862 65.9735 36.5396H70.3415C70.3135 35.9142 70.0988 35.4242 69.6975 35.0696C69.2962 34.7149 68.8015 34.5376 68.2135 34.5376ZM72.6422 40.6556V33.7116H73.7062L73.8042 35.0416C74.0189 34.5842 74.3455 34.2202 74.7842 33.9496C75.2229 33.6789 75.7642 33.5436 76.4082 33.5436V34.7756H76.0862C75.6755 34.7756 75.2975 34.8502 74.9522 34.9996C74.6069 35.1396 74.3315 35.3822 74.1262 35.7276C73.9209 36.0729 73.8182 36.5489 73.8182 37.1556V40.6556H72.6422ZM84.8772 40.8236C83.9626 40.8236 83.1599 40.6136 82.4692 40.1936C81.7786 39.7642 81.2419 39.1716 80.8592 38.4156C80.4766 37.6502 80.2852 36.7682 80.2852 35.7696C80.2852 34.7709 80.4766 33.8889 80.8592 33.1236C81.2512 32.3582 81.8019 31.7609 82.5112 31.3316C83.2299 30.9022 84.0746 30.6876 85.0452 30.6876C86.1466 30.6876 87.0612 30.9536 87.7892 31.4856C88.5266 32.0176 89.0026 32.7502 89.2172 33.6836H87.8592C87.7286 33.0956 87.4159 32.6289 86.9212 32.2836C86.4359 31.9382 85.8106 31.7656 85.0452 31.7656C84.3266 31.7656 83.7012 31.9289 83.1692 32.2556C82.6372 32.5729 82.2219 33.0302 81.9232 33.6276C81.6339 34.2249 81.4892 34.9389 81.4892 35.7696C81.4892 36.6002 81.6339 37.3142 81.9232 37.9116C82.2126 38.5089 82.6139 38.9709 83.1272 39.2976C83.6406 39.6149 84.2379 39.7736 84.9192 39.7736C85.9646 39.7736 86.7532 39.4702 87.2852 38.8636C87.8172 38.2476 88.1206 37.4076 88.1952 36.3436H85.3672V35.4196H89.3992V40.6556H88.3212L88.2232 39.0456C87.8686 39.6149 87.4346 40.0536 86.9212 40.3616C86.4079 40.6696 85.7266 40.8236 84.8772 40.8236ZM90.7689 40.6556V33.7116H91.8329L91.9309 35.0416C92.1456 34.5842 92.4723 34.2202 92.9109 33.9496C93.3496 33.6789 93.8909 33.5436 94.5349 33.5436V34.7756H94.2129C93.8023 34.7756 93.4243 34.8502 93.0789 34.9996C92.7336 35.1396 92.4583 35.3822 92.2529 35.7276C92.0476 36.0729 91.9449 36.5489 91.9449 37.1556V40.6556H90.7689ZM98.3391 40.8236C97.6858 40.8236 97.0978 40.6742 96.5751 40.3756C96.0524 40.0769 95.6371 39.6569 95.3291 39.1156C95.0304 38.5649 94.8811 37.9209 94.8811 37.1836C94.8811 36.4462 95.0351 35.8069 95.3431 35.2656C95.6511 34.7149 96.0664 34.2902 96.5891 33.9916C97.1211 33.6929 97.7138 33.5436 98.3671 33.5436C99.0204 33.5436 99.6084 33.6929 100.131 33.9916C100.654 34.2902 101.064 34.7149 101.363 35.2656C101.671 35.8069 101.825 36.4462 101.825 37.1836C101.825 37.9209 101.671 38.5649 101.363 39.1156C101.055 39.6569 100.635 40.0769 100.103 40.3756C99.5804 40.6742 98.9924 40.8236 98.3391 40.8236ZM98.3391 39.8156C98.7404 39.8156 99.1138 39.7176 99.4591 39.5216C99.8044 39.3256 100.084 39.0316 100.299 38.6396C100.514 38.2476 100.621 37.7622 100.621 37.1836C100.621 36.6049 100.514 36.1196 100.299 35.7276C100.094 35.3356 99.8184 35.0416 99.4731 34.8456C99.1278 34.6496 98.7591 34.5516 98.3671 34.5516C97.9658 34.5516 97.5924 34.6496 97.2471 34.8456C96.9018 35.0416 96.6218 35.3356 96.4071 35.7276C96.1924 36.1196 96.0851 36.6049 96.0851 37.1836C96.0851 37.7622 96.1924 38.2476 96.4071 38.6396C96.6218 39.0316 96.8971 39.3256 97.2331 39.5216C97.5784 39.7176 97.9471 39.8156 98.3391 39.8156ZM104.18 40.6556L102.15 33.7116H103.326L104.796 39.1576L106.42 33.7116H107.75L109.388 39.1576L110.844 33.7116H112.034L110.004 40.6556H108.8L107.092 34.9296L105.384 40.6556H104.18ZM115.659 40.6556C115.025 40.6556 114.525 40.5016 114.161 40.1936C113.797 39.8856 113.615 39.3302 113.615 38.5276V34.7056H112.411V33.7116H113.615L113.769 32.0456H114.791V33.7116H116.835V34.7056H114.791V38.5276C114.791 38.9662 114.88 39.2649 115.057 39.4236C115.235 39.5729 115.547 39.6476 115.995 39.6476H116.723V40.6556H115.659ZM117.909 40.6556V30.5756H119.085V34.9016C119.319 34.4722 119.65 34.1409 120.079 33.9076C120.509 33.6649 120.975 33.5436 121.479 33.5436C122.282 33.5436 122.926 33.7956 123.411 34.2996C123.897 34.7942 124.139 35.5596 124.139 36.5956V40.6556H122.977V36.7216C122.977 35.2749 122.394 34.5516 121.227 34.5516C120.621 34.5516 120.112 34.7709 119.701 35.2096C119.291 35.6389 119.085 36.2549 119.085 37.0576V40.6556H117.909Z" fill="#9E9E9E"/>
<path d="M28.2365 71.9867V69.8784C29.4941 68.8797 30.6962 67.8718 31.8428 66.8547C32.9894 65.8375 34.0065 64.8389 34.8942 63.8587C35.8004 62.86 36.5124 61.8891 37.0303 60.9459C37.5481 59.9842 37.807 59.0596 37.807 58.1719C37.807 57.5801 37.7053 57.0252 37.5019 56.5074C37.2984 55.9711 36.9655 55.5457 36.5032 55.2313C36.0409 54.8985 35.4213 54.732 34.6446 54.732C33.4795 54.732 32.601 55.1019 32.0092 55.8416C31.4359 56.5814 31.1585 57.4691 31.177 58.5047H28.3197C28.3382 57.1362 28.6249 55.9896 29.1797 55.0649C29.753 54.1402 30.5112 53.4374 31.4544 52.9566C32.4161 52.4758 33.498 52.2354 34.7001 52.2354C36.5309 52.2354 37.992 52.7532 39.0831 53.7888C40.1927 54.806 40.7475 56.23 40.7475 58.0609C40.7475 59.152 40.4794 60.2339 39.943 61.3065C39.4252 62.3792 38.7409 63.4148 37.8902 64.4135C37.058 65.3937 36.1611 66.3184 35.1994 67.1876C34.2377 68.0568 33.3223 68.8428 32.4531 69.5455H41.3301V71.9867H28.2365ZM50.3861 72.3196C48.6292 72.3196 47.1127 71.9035 45.8366 71.0713C44.5791 70.2205 43.6081 69.0462 42.9239 67.5482C42.2581 66.0317 41.9252 64.2748 41.9252 62.2775C41.9252 60.2801 42.2581 58.5325 42.9239 57.0345C43.6081 55.518 44.5791 54.3436 45.8366 53.5114C47.1127 52.6607 48.6292 52.2354 50.3861 52.2354C52.143 52.2354 53.6502 52.6607 54.9078 53.5114C56.1654 54.3436 57.1271 55.518 57.7928 57.0345C58.4771 58.5325 58.8193 60.2801 58.8193 62.2775C58.8193 64.2748 58.4771 66.0317 57.7928 67.5482C57.1271 69.0462 56.1654 70.2205 54.9078 71.0713C53.6502 71.9035 52.143 72.3196 50.3861 72.3196ZM50.3861 69.6842C51.4402 69.6842 52.3742 69.3883 53.1879 68.7965C54.0201 68.2047 54.6674 67.354 55.1297 66.2444C55.5921 65.1348 55.8233 63.8125 55.8233 62.2775C55.8233 60.7425 55.5921 59.4202 55.1297 58.3106C54.6674 57.2009 54.0201 56.3502 53.1879 55.7584C52.3742 55.1666 51.4402 54.8707 50.3861 54.8707C49.3135 54.8707 48.3703 55.1666 47.5565 55.7584C46.7428 56.3502 46.1048 57.2009 45.6424 58.3106C45.1801 59.4202 44.9489 60.7425 44.9489 62.2775C44.9489 63.8125 45.1801 65.1348 45.6424 66.2444C46.1048 67.354 46.7428 68.2047 47.5565 68.7965C48.3703 69.3883 49.3135 69.6842 50.3861 69.6842ZM57.8449 75.2601L59.4538 68.7133H62.3666L59.8144 75.2601H57.8449ZM70.7193 72.3196C69.2953 72.3196 68.0932 72.0514 67.1131 71.5151C66.1329 70.9788 65.3376 70.2668 64.7274 69.3791C64.1356 68.4914 63.7102 67.4927 63.4513 66.3831C63.1924 65.2735 63.0629 64.1361 63.0629 62.971C63.0629 60.8257 63.3588 58.9486 63.9506 57.3396C64.5609 55.7307 65.4301 54.4823 66.5582 53.5946C67.6864 52.6885 69.0549 52.2354 70.6639 52.2354C71.9399 52.2354 73.0311 52.485 73.9373 52.9844C74.8434 53.4837 75.5462 54.1495 76.0455 54.9817C76.5634 55.8139 76.8778 56.7201 76.9887 57.7003H74.2424C74.076 56.7386 73.6783 55.9988 73.0495 55.481C72.4208 54.9632 71.6163 54.7043 70.6361 54.7043C69.2861 54.7043 68.1672 55.3423 67.2795 56.6184C66.4103 57.876 65.9479 59.8178 65.8925 62.4439C66.3363 61.6302 67.0206 60.9367 67.9453 60.3634C68.8885 59.7901 69.9703 59.5034 71.1909 59.5034C72.2821 59.5034 73.2992 59.7623 74.2424 60.2801C75.2041 60.798 75.9808 61.5285 76.5726 62.4717C77.1829 63.3963 77.4881 64.4967 77.4881 65.7728C77.4881 66.9009 77.2106 67.9643 76.6558 68.963C76.101 69.9616 75.315 70.7754 74.2979 71.4041C73.2992 72.0144 72.1064 72.3196 70.7193 72.3196ZM70.5529 69.7674C71.3296 69.7674 72.0231 69.601 72.6334 69.2681C73.2437 68.9352 73.7246 68.4821 74.076 67.9088C74.4273 67.317 74.603 66.6512 74.603 65.9115C74.603 64.7279 74.2147 63.7847 73.4379 63.0819C72.6797 62.3792 71.7088 62.0278 70.5252 62.0278C69.7484 62.0278 69.0456 62.2035 68.4169 62.5549C67.8066 62.9063 67.3257 63.3778 66.9743 63.9696C66.623 64.543 66.4473 65.181 66.4473 65.8838C66.4473 66.642 66.623 67.317 66.9743 67.9088C67.3442 68.4821 67.8343 68.9352 68.4446 69.2681C69.0734 69.601 69.7762 69.7674 70.5529 69.7674ZM88.3024 71.9867V68.103H78.5654V65.7728L87.8308 52.5682H91.2151V65.5509H93.9337V68.103H91.2151V71.9867H88.3024ZM81.7556 65.5509H88.4688V55.8139L81.7556 65.5509ZM94.684 71.9867V69.8784C95.9416 68.8797 97.1437 67.8718 98.2903 66.8547C99.4369 65.8375 100.454 64.8389 101.342 63.8587C102.248 62.86 102.96 61.8891 103.478 60.9459C103.996 59.9842 104.255 59.0596 104.255 58.1719C104.255 57.5801 104.153 57.0252 103.949 56.5074C103.746 55.9711 103.413 55.5457 102.951 55.2313C102.488 54.8985 101.869 54.732 101.092 54.732C99.927 54.732 99.0485 55.1019 98.4567 55.8416C97.8834 56.5814 97.606 57.4691 97.6245 58.5047H94.7672C94.7857 57.1362 95.0724 55.9896 95.6272 55.0649C96.2005 54.1402 96.9587 53.4374 97.9019 52.9566C98.8636 52.4758 99.9455 52.2354 101.148 52.2354C102.978 52.2354 104.439 52.7532 105.531 53.7888C106.64 54.806 107.195 56.23 107.195 58.0609C107.195 59.152 106.927 60.2339 106.391 61.3065C105.873 62.3792 105.188 63.4148 104.338 64.4135C103.506 65.3937 102.609 66.3184 101.647 67.1876C100.685 68.0568 99.7698 68.8428 98.9006 69.5455H107.778V71.9867H94.684Z" fill="#121212"/>
<rect x="129.935" y="53.8212" width="39.3278" height="17.3311" rx="6.66389" fill="#DAFFE9"/>
<path d="M137.078 63.5195V62.8078H138.59V61.3924H139.325V62.8078H140.837V63.5195H139.325V64.9429H138.59V63.5195H137.078ZM144.034 65.4867V64.3672H141.227V63.6954L143.898 59.889H144.874V63.6315H145.658V64.3672H144.874V65.4867H144.034ZM142.147 63.6315H144.082V60.8246L142.147 63.6315ZM147.945 65.5827C147.577 65.5827 147.263 65.5107 147.001 65.3667C146.74 65.2228 146.535 65.0309 146.386 64.791C146.242 64.5511 146.154 64.2899 146.122 64.0073H146.913C146.961 64.2845 147.076 64.4978 147.257 64.647C147.439 64.7963 147.67 64.871 147.953 64.871C148.342 64.871 148.662 64.6897 148.913 64.3272C149.169 63.9593 149.304 63.3969 149.32 62.6399C149.193 62.8744 148.993 63.0744 148.721 63.2396C148.454 63.4049 148.145 63.4875 147.793 63.4875C147.479 63.4875 147.183 63.4129 146.905 63.2636C146.628 63.1143 146.404 62.9064 146.234 62.6399C146.063 62.368 145.978 62.0481 145.978 61.6803C145.978 61.3551 146.058 61.0485 146.218 60.7607C146.378 60.4728 146.602 60.2409 146.889 60.065C147.183 59.8837 147.529 59.7931 147.929 59.7931C148.34 59.7931 148.686 59.8704 148.969 60.025C149.251 60.1796 149.478 60.3848 149.648 60.6407C149.819 60.8966 149.942 61.1845 150.016 61.5044C150.096 61.8242 150.136 62.1521 150.136 62.4879C150.136 63.1064 150.048 63.6475 149.872 64.1113C149.702 64.5751 149.454 64.9376 149.129 65.1988C148.803 65.4547 148.409 65.5827 147.945 65.5827ZM147.985 62.7598C148.209 62.7598 148.409 62.7092 148.585 62.6079C148.761 62.5066 148.899 62.3733 149.001 62.2081C149.107 62.0375 149.161 61.8509 149.161 61.6483C149.161 61.4297 149.107 61.2378 149.001 61.0725C148.899 60.9019 148.758 60.7687 148.577 60.6727C148.401 60.5767 148.201 60.5288 147.977 60.5288C147.753 60.5288 147.553 60.5767 147.377 60.6727C147.201 60.7687 147.06 60.9019 146.953 61.0725C146.852 61.2378 146.802 61.4271 146.802 61.6403C146.802 61.9815 146.913 62.2534 147.137 62.456C147.361 62.6585 147.644 62.7598 147.985 62.7598ZM152.958 65.5827C152.451 65.5827 152.014 65.4627 151.646 65.2228C151.284 64.9776 151.004 64.639 150.807 64.2072C150.615 63.7701 150.519 63.2636 150.519 62.6879C150.519 62.1121 150.615 61.6083 150.807 61.1765C151.004 60.7393 151.284 60.4008 151.646 60.1609C152.014 59.9157 152.451 59.7931 152.958 59.7931C153.464 59.7931 153.899 59.9157 154.261 60.1609C154.624 60.4008 154.901 60.7393 155.093 61.1765C155.29 61.6083 155.389 62.1121 155.389 62.6879C155.389 63.2636 155.29 63.7701 155.093 64.2072C154.901 64.639 154.624 64.9776 154.261 65.2228C153.899 65.4627 153.464 65.5827 152.958 65.5827ZM152.958 64.823C153.261 64.823 153.531 64.7377 153.765 64.5671C154.005 64.3965 154.192 64.1513 154.325 63.8314C154.458 63.5115 154.525 63.1303 154.525 62.6879C154.525 62.2454 154.458 61.8642 154.325 61.5443C154.192 61.2245 154.005 60.9792 153.765 60.8086C153.531 60.638 153.261 60.5528 152.958 60.5528C152.648 60.5528 152.377 60.638 152.142 60.8086C151.907 60.9792 151.723 61.2245 151.59 61.5443C151.457 61.8642 151.39 62.2454 151.39 62.6879C151.39 63.1303 151.457 63.5115 151.59 63.8314C151.723 64.1513 151.907 64.3965 152.142 64.5671C152.377 64.7377 152.648 64.823 152.958 64.823ZM157.013 62.5599C156.763 62.5599 156.536 62.5039 156.333 62.392C156.136 62.28 155.979 62.1228 155.862 61.9202C155.744 61.7123 155.686 61.4644 155.686 61.1765C155.686 60.8939 155.744 60.6514 155.862 60.4488C155.979 60.2409 156.139 60.0809 156.341 59.969C156.544 59.857 156.771 59.8011 157.021 59.8011C157.266 59.8011 157.488 59.857 157.685 59.969C157.887 60.0809 158.047 60.2409 158.165 60.4488C158.282 60.6514 158.341 60.8939 158.341 61.1765C158.341 61.4644 158.282 61.7123 158.165 61.9202C158.047 62.1228 157.887 62.28 157.685 62.392C157.488 62.5039 157.264 62.5599 157.013 62.5599ZM156.613 65.4867L159.82 59.889H160.652L157.453 65.4867H156.613ZM157.013 61.9522C157.184 61.9522 157.33 61.8882 157.453 61.7602C157.581 61.627 157.645 61.4324 157.645 61.1765C157.645 60.9206 157.584 60.7287 157.461 60.6007C157.338 60.4675 157.189 60.4008 157.013 60.4008C156.843 60.4008 156.693 60.4675 156.565 60.6007C156.437 60.7287 156.373 60.9206 156.373 61.1765C156.373 61.4324 156.435 61.627 156.557 61.7602C156.685 61.8882 156.837 61.9522 157.013 61.9522ZM160.3 65.5827C160.049 65.5827 159.823 65.5267 159.62 65.4147C159.423 65.3028 159.266 65.1455 159.148 64.9429C159.031 64.735 158.972 64.4871 158.972 64.1992C158.972 63.9167 159.031 63.6715 159.148 63.4635C159.266 63.2556 159.425 63.0957 159.628 62.9837C159.831 62.8718 160.057 62.8158 160.308 62.8158C160.553 62.8158 160.774 62.8718 160.971 62.9837C161.174 63.0957 161.334 63.2556 161.451 63.4635C161.569 63.6715 161.627 63.9167 161.627 64.1992C161.627 64.4871 161.569 64.735 161.451 64.9429C161.334 65.1455 161.174 65.3028 160.971 65.4147C160.774 65.5267 160.55 65.5827 160.3 65.5827ZM160.3 64.9669C160.47 64.9669 160.617 64.9029 160.74 64.775C160.868 64.647 160.931 64.4551 160.931 64.1992C160.931 63.9433 160.87 63.7514 160.748 63.6235C160.625 63.4902 160.476 63.4236 160.3 63.4236C160.129 63.4236 159.98 63.4902 159.852 63.6235C159.724 63.7514 159.66 63.9433 159.66 64.1992C159.66 64.4551 159.721 64.647 159.844 64.775C159.972 64.9029 160.124 64.9669 160.3 64.9669Z" fill="#0E803B"/>
<path fill-rule="evenodd" clip-rule="evenodd" d="M34.9851 118.302C39.5856 118.302 43.315 122.031 43.315 126.632L43.315 153.954C43.315 158.554 39.5856 162.284 34.9851 162.284C30.3847 162.284 26.6553 158.554 26.6553 153.954L26.6553 126.632C26.6553 122.031 30.3847 118.302 34.9851 118.302Z" fill="#7551DC"/>
<path fill-rule="evenodd" clip-rule="evenodd" d="M66.4724 108.306C71.0729 108.306 74.8023 112.036 74.8023 116.636L74.8023 153.954C74.8023 158.554 71.0729 162.284 66.4724 162.284C61.872 162.284 58.1426 158.554 58.1426 153.954L58.1426 116.636C58.1426 112.036 61.872 108.306 66.4724 108.306Z" fill="#7551DC"/>
<path fill-rule="evenodd" clip-rule="evenodd" d="M97.9588 103.641C102.559 103.641 106.289 107.371 106.289 111.971L106.289 153.954C106.289 158.554 102.559 162.284 97.9588 162.284C93.3583 162.284 89.6289 158.554 89.6289 153.954L89.6289 111.971C89.6289 107.371 93.3583 103.641 97.9588 103.641Z" fill="#7551DC"/>
<path fill-rule="evenodd" clip-rule="evenodd" d="M129.446 87.6457C134.047 87.6457 137.776 91.3751 137.776 95.9756V153.954C137.776 158.554 134.047 162.284 129.446 162.284C124.846 162.284 121.116 158.554 121.116 153.954V95.9756C121.116 91.3751 124.846 87.6457 129.446 87.6457Z" fill="#7551DC"/>
<path fill-rule="evenodd" clip-rule="evenodd" d="M160.932 87.6481C165.533 87.6481 169.262 91.3775 169.262 95.9779L169.262 153.954C169.262 158.554 165.533 162.284 160.932 162.284C156.332 162.284 152.603 158.554 152.603 153.954L152.603 95.9779C152.603 91.3775 156.332 87.6481 160.932 87.6481Z" fill="#7551DC"/>
</svg>
