<svg width="28" height="28" viewBox="0 0 28 28" fill="none" xmlns="http://www.w3.org/2000/svg">
<rect width="28" height="28" rx="4" fill="#292929"/>
<path d="M12.204 12.524C12.204 13.356 12.012 14.116 11.628 14.804C11.252 15.492 10.684 16.06 9.924 16.508C9.172 16.956 8.276 17.18 7.236 17.18C6.204 17.18 5.34 16.88 4.644 16.28C3.948 15.68 3.6 14.936 3.6 14.048C3.6 13.4 3.804 12.848 4.212 12.392C4.628 11.928 5.136 11.64 5.736 11.528C5.736 10.848 5.72 10.04 5.688 9.104C5.304 9.104 5.112 8.968 5.112 8.696C5.112 8.424 5.38 8.22 5.916 8.084C6.452 7.948 7.048 7.88 7.704 7.88C8.36 7.88 8.988 8.012 9.588 8.276C10.188 8.54 10.672 8.896 11.04 9.344C11.816 10.264 12.204 11.324 12.204 12.524ZM5.7 14.42L5.748 12.944V12.368C5.38 12.472 5.084 12.68 4.86 12.992C4.644 13.296 4.536 13.648 4.536 14.048C4.536 14.672 4.788 15.212 5.292 15.668C5.812 16.116 6.476 16.34 7.284 16.34C8.396 16.34 9.328 15.976 10.08 15.248C10.84 14.512 11.22 13.644 11.22 12.644C11.22 11.644 10.924 10.752 10.332 9.968C10.036 9.584 9.648 9.28 9.168 9.056C8.688 8.832 8.156 8.72 7.572 8.72C7.292 8.72 6.992 8.756 6.672 8.828L6.612 11.468C7.148 11.5 7.632 11.668 8.064 11.972C8.496 12.268 8.712 12.58 8.712 12.908C8.712 13.1 8.632 13.224 8.472 13.28C8.432 13.304 8.372 13.316 8.292 13.316C8.212 13.316 8.136 13.288 8.064 13.232C7.992 13.168 7.888 13.06 7.752 12.908C7.616 12.756 7.512 12.648 7.44 12.584C7.168 12.376 6.888 12.272 6.6 12.272L6.612 13.136L6.648 13.856C6.664 14.064 6.672 14.212 6.672 14.3C6.672 14.38 6.668 14.464 6.66 14.552C6.66 14.64 6.616 14.74 6.528 14.852C6.44 14.956 6.348 15.008 6.252 15.008C6.164 15.008 6.084 14.992 6.012 14.96C5.804 14.856 5.7 14.676 5.7 14.42ZM13.5431 15.944C13.6631 15.792 13.8071 15.716 13.9751 15.716C14.1431 15.716 14.2711 15.776 14.3591 15.896C14.4551 16.016 14.5031 16.176 14.5031 16.376C14.5031 16.568 14.4431 16.74 14.3231 16.892C14.2031 17.044 14.0631 17.12 13.9031 17.12C13.7431 17.12 13.6151 17.06 13.5191 16.94C13.4231 16.812 13.3751 16.652 13.3751 16.46C13.3751 16.268 13.4311 16.096 13.5431 15.944ZM24.3915 12.524C24.3915 13.356 24.1995 14.116 23.8155 14.804C23.4395 15.492 22.8715 16.06 22.1115 16.508C21.3595 16.956 20.4635 17.18 19.4235 17.18C18.3915 17.18 17.5275 16.88 16.8315 16.28C16.1355 15.68 15.7875 14.936 15.7875 14.048C15.7875 13.4 15.9915 12.848 16.3995 12.392C16.8155 11.928 17.3235 11.64 17.9235 11.528C17.9235 10.848 17.9075 10.04 17.8755 9.104C17.4915 9.104 17.2995 8.968 17.2995 8.696C17.2995 8.424 17.5675 8.22 18.1035 8.084C18.6395 7.948 19.2355 7.88 19.8915 7.88C20.5475 7.88 21.1755 8.012 21.7755 8.276C22.3755 8.54 22.8595 8.896 23.2275 9.344C24.0035 10.264 24.3915 11.324 24.3915 12.524ZM17.8875 14.42L17.9355 12.944V12.368C17.5675 12.472 17.2715 12.68 17.0475 12.992C16.8315 13.296 16.7235 13.648 16.7235 14.048C16.7235 14.672 16.9755 15.212 17.4795 15.668C17.9995 16.116 18.6635 16.34 19.4715 16.34C20.5835 16.34 21.5155 15.976 22.2675 15.248C23.0275 14.512 23.4075 13.644 23.4075 12.644C23.4075 11.644 23.1115 10.752 22.5195 9.968C22.2235 9.584 21.8355 9.28 21.3555 9.056C20.8755 8.832 20.3435 8.72 19.7595 8.72C19.4795 8.72 19.1795 8.756 18.8595 8.828L18.7995 11.468C19.3355 11.5 19.8195 11.668 20.2515 11.972C20.6835 12.268 20.8995 12.58 20.8995 12.908C20.8995 13.1 20.8195 13.224 20.6595 13.28C20.6195 13.304 20.5595 13.316 20.4795 13.316C20.3995 13.316 20.3235 13.288 20.2515 13.232C20.1795 13.168 20.0755 13.06 19.9395 12.908C19.8035 12.756 19.6995 12.648 19.6275 12.584C19.3555 12.376 19.0755 12.272 18.7875 12.272L18.7995 13.136L18.8355 13.856C18.8515 14.064 18.8595 14.212 18.8595 14.3C18.8595 14.38 18.8555 14.464 18.8475 14.552C18.8475 14.64 18.8035 14.74 18.7155 14.852C18.6275 14.956 18.5355 15.008 18.4395 15.008C18.3515 15.008 18.2715 14.992 18.1995 14.96C17.9915 14.856 17.8875 14.676 17.8875 14.42Z" fill="white"/>
<path d="M10 20C10.6667 21.5 13.4 23.6 19 20" stroke="white" stroke-linecap="round"/>
</svg>
