<svg width="181" height="68" viewBox="0 0 181 68" fill="none" xmlns="http://www.w3.org/2000/svg">
<rect width="180.684" height="67.7501" rx="33.8751" fill="white"/>
<circle cx="33.8749" cy="33.8751" r="21.2704" fill="#FFCC6A"/>
<path d="M24.6836 34.2469L33.9837 24.9468M33.9837 24.9468L43.2839 34.2469M33.9837 24.9468V43.5471" stroke="#7551DC" stroke-width="3.15117" stroke-linecap="round" stroke-linejoin="round"/>
<path d="M63.8587 26.7743V18.3743H68.9707V19.2023H64.8667V22.1543H68.3587V22.9703H64.8667V26.7743H63.8587ZM72.303 26.9183C71.743 26.9183 71.239 26.7903 70.791 26.5343C70.343 26.2783 69.987 25.9183 69.723 25.4543C69.467 24.9823 69.339 24.4303 69.339 23.7983C69.339 23.1663 69.471 22.6183 69.735 22.1543C69.999 21.6823 70.355 21.3183 70.803 21.0623C71.259 20.8063 71.767 20.6783 72.327 20.6783C72.887 20.6783 73.391 20.8063 73.839 21.0623C74.287 21.3183 74.639 21.6823 74.895 22.1543C75.159 22.6183 75.291 23.1663 75.291 23.7983C75.291 24.4303 75.159 24.9823 74.895 25.4543C74.631 25.9183 74.271 26.2783 73.815 26.5343C73.367 26.7903 72.863 26.9183 72.303 26.9183ZM72.303 26.0543C72.647 26.0543 72.967 25.9703 73.263 25.8023C73.559 25.6343 73.799 25.3823 73.983 25.0463C74.167 24.7103 74.259 24.2943 74.259 23.7983C74.259 23.3023 74.167 22.8863 73.983 22.5503C73.807 22.2143 73.571 21.9623 73.275 21.7943C72.979 21.6263 72.663 21.5423 72.327 21.5423C71.983 21.5423 71.663 21.6263 71.367 21.7943C71.071 21.9623 70.831 22.2143 70.647 22.5503C70.463 22.8863 70.371 23.3023 70.371 23.7983C70.371 24.2943 70.463 24.7103 70.647 25.0463C70.831 25.3823 71.067 25.6343 71.355 25.8023C71.651 25.9703 71.967 26.0543 72.303 26.0543ZM76.3326 26.7743V18.1343H77.3406V26.7743H76.3326ZM78.6328 26.7743V18.1343H79.6408V26.7743H78.6328ZM83.6449 26.9183C83.0849 26.9183 82.5809 26.7903 82.1329 26.5343C81.6849 26.2783 81.3289 25.9183 81.0649 25.4543C80.8089 24.9823 80.6809 24.4303 80.6809 23.7983C80.6809 23.1663 80.8129 22.6183 81.0769 22.1543C81.3409 21.6823 81.6969 21.3183 82.1449 21.0623C82.6009 20.8063 83.1089 20.6783 83.6689 20.6783C84.2289 20.6783 84.7329 20.8063 85.1809 21.0623C85.6289 21.3183 85.9809 21.6823 86.2369 22.1543C86.5009 22.6183 86.6329 23.1663 86.6329 23.7983C86.6329 24.4303 86.5009 24.9823 86.2369 25.4543C85.9729 25.9183 85.6129 26.2783 85.1569 26.5343C84.7089 26.7903 84.2049 26.9183 83.6449 26.9183ZM83.6449 26.0543C83.9889 26.0543 84.3089 25.9703 84.6049 25.8023C84.9009 25.6343 85.1409 25.3823 85.3249 25.0463C85.5089 24.7103 85.6009 24.2943 85.6009 23.7983C85.6009 23.3023 85.5089 22.8863 85.3249 22.5503C85.1489 22.2143 84.9129 21.9623 84.6169 21.7943C84.3209 21.6263 84.0049 21.5423 83.6689 21.5423C83.3249 21.5423 83.0049 21.6263 82.7089 21.7943C82.4129 21.9623 82.1729 22.2143 81.9889 22.5503C81.8049 22.8863 81.7129 23.3023 81.7129 23.7983C81.7129 24.2943 81.8049 24.7103 81.9889 25.0463C82.1729 25.3823 82.4089 25.6343 82.6969 25.8023C82.9929 25.9703 83.3089 26.0543 83.6449 26.0543ZM88.6518 26.7743L86.9118 20.8223H87.9198L89.1798 25.4903L90.5718 20.8223H91.7118L93.1158 25.4903L94.3638 20.8223H95.3838L93.6438 26.7743H92.6118L91.1478 21.8663L89.6838 26.7743H88.6518ZM98.592 26.9183C98.024 26.9183 97.52 26.7903 97.08 26.5343C96.64 26.2703 96.292 25.9063 96.036 25.4423C95.788 24.9783 95.664 24.4303 95.664 23.7983C95.664 23.1743 95.788 22.6303 96.036 22.1663C96.284 21.6943 96.628 21.3303 97.068 21.0743C97.516 20.8103 98.032 20.6783 98.616 20.6783C99.192 20.6783 99.688 20.8103 100.104 21.0743C100.528 21.3303 100.852 21.6703 101.076 22.0943C101.3 22.5183 101.412 22.9743 101.412 23.4623C101.412 23.5503 101.408 23.6383 101.4 23.7263C101.4 23.8143 101.4 23.9143 101.4 24.0263H96.66C96.684 24.4823 96.788 24.8623 96.972 25.1663C97.164 25.4623 97.4 25.6863 97.68 25.8383C97.968 25.9903 98.272 26.0663 98.592 26.0663C99.008 26.0663 99.356 25.9703 99.636 25.7783C99.916 25.5863 100.12 25.3263 100.248 24.9983H101.244C101.084 25.5503 100.776 26.0103 100.32 26.3783C99.872 26.7383 99.296 26.9183 98.592 26.9183ZM98.592 21.5303C98.112 21.5303 97.684 21.6783 97.308 21.9743C96.94 22.2623 96.728 22.6863 96.672 23.2463H100.416C100.392 22.7103 100.208 22.2903 99.864 21.9863C99.52 21.6823 99.096 21.5303 98.592 21.5303ZM102.388 26.7743V20.8223H103.3L103.384 21.9623C103.568 21.5703 103.848 21.2583 104.224 21.0263C104.6 20.7943 105.064 20.6783 105.616 20.6783V21.7343H105.34C104.988 21.7343 104.664 21.7983 104.368 21.9263C104.072 22.0463 103.836 22.2543 103.66 22.5503C103.484 22.8463 103.396 23.2543 103.396 23.7743V26.7743H102.388ZM108.667 26.9183C107.955 26.9183 107.363 26.7383 106.891 26.3783C106.419 26.0183 106.143 25.5303 106.063 24.9143H107.095C107.159 25.2263 107.323 25.4983 107.587 25.7303C107.859 25.9543 108.223 26.0663 108.679 26.0663C109.103 26.0663 109.415 25.9783 109.615 25.8023C109.815 25.6183 109.915 25.4023 109.915 25.1543C109.915 24.7943 109.783 24.5543 109.519 24.4343C109.263 24.3143 108.899 24.2063 108.427 24.1103C108.107 24.0463 107.787 23.9543 107.467 23.8343C107.147 23.7143 106.879 23.5463 106.663 23.3303C106.447 23.1063 106.339 22.8143 106.339 22.4543C106.339 21.9343 106.531 21.5103 106.915 21.1823C107.307 20.8463 107.835 20.6783 108.499 20.6783C109.131 20.6783 109.647 20.8383 110.047 21.1583C110.455 21.4703 110.691 21.9183 110.755 22.5023H109.759C109.719 22.1983 109.587 21.9623 109.363 21.7943C109.147 21.6183 108.855 21.5303 108.487 21.5303C108.127 21.5303 107.847 21.6063 107.647 21.7583C107.455 21.9103 107.359 22.1103 107.359 22.3583C107.359 22.5983 107.483 22.7863 107.731 22.9223C107.987 23.0583 108.331 23.1743 108.763 23.2703C109.131 23.3503 109.479 23.4503 109.807 23.5703C110.143 23.6823 110.415 23.8543 110.623 24.0863C110.839 24.3103 110.947 24.6383 110.947 25.0703C110.955 25.6063 110.751 26.0503 110.335 26.4023C109.927 26.7463 109.371 26.9183 108.667 26.9183Z" fill="#9E9E9E"/>
<path d="M69.1707 51.2158C68.2374 51.2158 67.3907 51.0492 66.6307 50.7158C65.884 50.3692 65.284 49.8892 64.8307 49.2758C64.3907 48.6625 64.1707 47.9425 64.1707 47.1158C64.1707 46.2758 64.404 45.5225 64.8707 44.8558C65.3507 44.1892 65.984 43.7358 66.7707 43.4958C66.064 43.2158 65.5174 42.8092 65.1307 42.2758C64.744 41.7292 64.5507 41.1292 64.5507 40.4758C64.5507 39.7958 64.7307 39.1758 65.0907 38.6158C65.4507 38.0425 65.9707 37.5892 66.6507 37.2558C67.344 36.9092 68.184 36.7358 69.1707 36.7358C70.1574 36.7358 70.9907 36.9092 71.6707 37.2558C72.364 37.5892 72.8907 38.0425 73.2507 38.6158C73.6107 39.1758 73.7907 39.7958 73.7907 40.4758C73.7907 41.1158 73.5907 41.7158 73.1907 42.2758C72.804 42.8225 72.2574 43.2292 71.5507 43.4958C72.3374 43.7492 72.964 44.2092 73.4307 44.8758C73.9107 45.5292 74.1507 46.2758 74.1507 47.1158C74.1507 47.9425 73.9307 48.6625 73.4907 49.2758C73.0507 49.8892 72.4507 50.3692 71.6907 50.7158C70.944 51.0492 70.104 51.2158 69.1707 51.2158ZM69.1707 42.8158C69.944 42.8158 70.5507 42.6158 70.9907 42.2158C71.444 41.8158 71.6707 41.3025 71.6707 40.6758C71.6707 39.9692 71.4507 39.4292 71.0107 39.0558C70.5707 38.6825 69.9574 38.4958 69.1707 38.4958C68.384 38.4958 67.7707 38.6825 67.3307 39.0558C66.8907 39.4292 66.6707 39.9692 66.6707 40.6758C66.6707 41.3025 66.8907 41.8158 67.3307 42.2158C67.7707 42.6158 68.384 42.8158 69.1707 42.8158ZM69.1707 49.4158C70.1307 49.4158 70.8507 49.1892 71.3307 48.7358C71.8107 48.2692 72.0507 47.6758 72.0507 46.9558C72.0507 46.1558 71.7907 45.5425 71.2707 45.1158C70.764 44.6758 70.064 44.4558 69.1707 44.4558C68.2774 44.4558 67.5707 44.6758 67.0507 45.1158C66.5307 45.5425 66.2707 46.1558 66.2707 46.9558C66.2707 47.6758 66.5107 48.2692 66.9907 48.7358C67.484 49.1892 68.2107 49.4158 69.1707 49.4158ZM79.7657 51.2158C78.8457 51.2158 78.059 51.0358 77.4057 50.6758C76.7524 50.3158 76.239 49.8358 75.8657 49.2358C75.5057 48.6358 75.2857 47.9825 75.2057 47.2758H77.1857C77.3057 47.9692 77.5924 48.5025 78.0457 48.8758C78.499 49.2492 79.079 49.4358 79.7857 49.4358C80.759 49.4358 81.559 48.9825 82.1857 48.0758C82.8257 47.1558 83.1657 45.7492 83.2057 43.8558C82.8857 44.4425 82.3857 44.9425 81.7057 45.3558C81.039 45.7692 80.2657 45.9758 79.3857 45.9758C78.599 45.9758 77.859 45.7892 77.1657 45.4158C76.4724 45.0425 75.9124 44.5225 75.4857 43.8558C75.059 43.1758 74.8457 42.3758 74.8457 41.4558C74.8457 40.6425 75.0457 39.8758 75.4457 39.1558C75.8457 38.4358 76.4057 37.8558 77.1257 37.4158C77.859 36.9625 78.7257 36.7358 79.7257 36.7358C80.7524 36.7358 81.619 36.9292 82.3257 37.3158C83.0324 37.7025 83.599 38.2158 84.0257 38.8558C84.4524 39.4958 84.759 40.2158 84.9457 41.0158C85.1457 41.8158 85.2457 42.6358 85.2457 43.4758C85.2457 45.0225 85.0257 46.3758 84.5857 47.5358C84.159 48.6958 83.539 49.6025 82.7257 50.2558C81.9124 50.8958 80.9257 51.2158 79.7657 51.2158ZM79.8657 44.1558C80.4257 44.1558 80.9257 44.0292 81.3657 43.7758C81.8057 43.5225 82.1524 43.1892 82.4057 42.7758C82.6724 42.3492 82.8057 41.8825 82.8057 41.3758C82.8057 40.8292 82.6724 40.3492 82.4057 39.9358C82.1524 39.5092 81.799 39.1758 81.3457 38.9358C80.9057 38.6958 80.4057 38.5758 79.8457 38.5758C79.2857 38.5758 78.7857 38.6958 78.3457 38.9358C77.9057 39.1758 77.5524 39.5092 77.2857 39.9358C77.0324 40.3492 76.9057 40.8225 76.9057 41.3558C76.9057 42.2092 77.1857 42.8892 77.7457 43.3958C78.3057 43.9025 79.0124 44.1558 79.8657 44.1558ZM85.2424 53.3358L86.4024 48.6158H88.5024L86.6624 53.3358H85.2424ZM94.2645 51.2158C93.2778 51.2158 92.4245 51.0425 91.7045 50.6958C90.9845 50.3358 90.4111 49.8492 89.9845 49.2358C89.5711 48.6092 89.3178 47.9025 89.2245 47.1158H91.3045C91.4378 47.7825 91.7711 48.3358 92.3045 48.7758C92.8378 49.2025 93.4978 49.4158 94.2845 49.4158C94.8711 49.4158 95.3778 49.2758 95.8045 48.9958C96.2311 48.7025 96.5645 48.3158 96.8045 47.8358C97.0445 47.3558 97.1645 46.8158 97.1645 46.2158C97.1645 45.2692 96.8978 44.5158 96.3645 43.9558C95.8311 43.3825 95.1578 43.0958 94.3445 43.0958C93.6511 43.0958 93.0578 43.2625 92.5645 43.5958C92.0711 43.9158 91.7111 44.3225 91.4845 44.8158H89.4645L90.6645 36.9758H98.2245V38.8358H92.2645L91.5445 42.5758C91.8511 42.2292 92.2711 41.9425 92.8045 41.7158C93.3511 41.4758 93.9645 41.3558 94.6445 41.3558C95.5911 41.3558 96.4045 41.5758 97.0845 42.0158C97.7645 42.4425 98.2845 43.0225 98.6445 43.7558C99.0178 44.4892 99.2045 45.3025 99.2045 46.1958C99.2045 47.1292 99.0045 47.9758 98.6045 48.7358C98.2045 49.4958 97.6311 50.1025 96.8845 50.5558C96.1511 50.9958 95.2778 51.2158 94.2645 51.2158ZM104.989 51.2158C104.082 51.2158 103.255 51.0558 102.509 50.7358C101.775 50.4025 101.189 49.9025 100.749 49.2358C100.309 48.5692 100.075 47.7358 100.049 46.7358H102.149C102.175 47.4825 102.429 48.1158 102.909 48.6358C103.402 49.1425 104.095 49.3958 104.989 49.3958C105.842 49.3958 106.495 49.1625 106.949 48.6958C107.402 48.2158 107.629 47.6225 107.629 46.9158C107.629 46.0625 107.322 45.4292 106.709 45.0158C106.109 44.6025 105.369 44.3958 104.489 44.3958H103.449V42.6358H104.509C105.295 42.6358 105.929 42.4492 106.409 42.0758C106.902 41.7025 107.149 41.1758 107.149 40.4958C107.149 39.9225 106.955 39.4558 106.569 39.0958C106.195 38.7358 105.662 38.5558 104.969 38.5558C104.249 38.5558 103.682 38.7692 103.269 39.1958C102.855 39.6092 102.629 40.1292 102.589 40.7558H100.489C100.515 39.9425 100.715 39.2358 101.089 38.6358C101.475 38.0358 102.002 37.5692 102.669 37.2358C103.335 36.9025 104.102 36.7358 104.969 36.7358C105.902 36.7358 106.682 36.9025 107.309 37.2358C107.949 37.5558 108.429 37.9958 108.749 38.5558C109.082 39.1025 109.249 39.7025 109.249 40.3558C109.249 41.1025 109.042 41.7558 108.629 42.3158C108.215 42.8758 107.662 43.2492 106.969 43.4358C107.769 43.6092 108.429 44.0025 108.949 44.6158C109.469 45.2158 109.729 45.9958 109.729 46.9558C109.729 47.7292 109.549 48.4425 109.189 49.0958C108.829 49.7358 108.295 50.2492 107.589 50.6358C106.882 51.0225 106.015 51.2158 104.989 51.2158ZM110.865 50.9758V49.4558C111.771 48.7358 112.638 48.0092 113.465 47.2758C114.291 46.5425 115.025 45.8225 115.665 45.1158C116.318 44.3958 116.831 43.6958 117.205 43.0158C117.578 42.3225 117.765 41.6558 117.765 41.0158C117.765 40.5892 117.691 40.1892 117.545 39.8158C117.398 39.4292 117.158 39.1225 116.825 38.8958C116.491 38.6558 116.045 38.5358 115.485 38.5358C114.645 38.5358 114.011 38.8025 113.585 39.3358C113.171 39.8692 112.971 40.5092 112.985 41.2558H110.925C110.938 40.2692 111.145 39.4425 111.545 38.7758C111.958 38.1092 112.505 37.6025 113.185 37.2558C113.878 36.9092 114.658 36.7358 115.525 36.7358C116.845 36.7358 117.898 37.1092 118.685 37.8558C119.485 38.5892 119.885 39.6158 119.885 40.9358C119.885 41.7225 119.691 42.5025 119.305 43.2758C118.931 44.0492 118.438 44.7958 117.825 45.5158C117.225 46.2225 116.578 46.8892 115.885 47.5158C115.191 48.1425 114.531 48.7092 113.905 49.2158H120.305V50.9758H110.865Z" fill="#121212"/>
<rect x="134.575" y="35.8751" width="33.5039" height="16.2016" rx="5.25195" fill="#DAFFE9"/>
<path d="M140.307 45.0087V44.2969H141.818V42.8815H142.554V44.2969H144.065V45.0087H142.554V46.4321H141.818V45.0087H140.307ZM145.288 46.9758V42.3378L144.384 42.5457V41.9219L145.623 41.3782H146.167V46.9758H145.288ZM146.793 46.9758V46.3681C147.155 46.0802 147.502 45.7897 147.832 45.4964C148.163 45.2032 148.456 44.9154 148.712 44.6328C148.973 44.3449 149.178 44.065 149.328 43.7932C149.477 43.5159 149.552 43.2494 149.552 42.9935C149.552 42.8229 149.522 42.663 149.464 42.5137C149.405 42.3591 149.309 42.2365 149.176 42.1458C149.042 42.0499 148.864 42.0019 148.64 42.0019C148.304 42.0019 148.051 42.1085 147.88 42.3218C147.715 42.535 147.635 42.7909 147.64 43.0894H146.817C146.822 42.6949 146.905 42.3644 147.065 42.0979C147.23 41.8313 147.448 41.6287 147.72 41.4901C147.998 41.3515 148.309 41.2822 148.656 41.2822C149.184 41.2822 149.605 41.4315 149.919 41.73C150.239 42.0232 150.399 42.4337 150.399 42.9615C150.399 43.276 150.322 43.5879 150.167 43.8971C150.018 44.2063 149.821 44.5049 149.576 44.7927C149.336 45.0753 149.077 45.3418 148.8 45.5924C148.523 45.843 148.259 46.0695 148.008 46.2721H150.567V46.9758H146.793ZM153.258 47.0718C152.751 47.0718 152.314 46.9518 151.946 46.7119C151.584 46.4667 151.304 46.1282 151.107 45.6964C150.915 45.2592 150.819 44.7528 150.819 44.177C150.819 43.6012 150.915 43.0974 151.107 42.6656C151.304 42.2285 151.584 41.8899 151.946 41.6501C152.314 41.4048 152.751 41.2822 153.258 41.2822C153.764 41.2822 154.199 41.4048 154.561 41.6501C154.924 41.8899 155.201 42.2285 155.393 42.6656C155.59 43.0974 155.689 43.6012 155.689 44.177C155.689 44.7528 155.59 45.2592 155.393 45.6964C155.201 46.1282 154.924 46.4667 154.561 46.7119C154.199 46.9518 153.764 47.0718 153.258 47.0718ZM153.258 46.3121C153.562 46.3121 153.831 46.2268 154.065 46.0562C154.305 45.8856 154.492 45.6404 154.625 45.3205C154.758 45.0007 154.825 44.6195 154.825 44.177C154.825 43.7345 154.758 43.3533 154.625 43.0335C154.492 42.7136 154.305 42.4684 154.065 42.2978C153.831 42.1272 153.562 42.0419 153.258 42.0419C152.948 42.0419 152.677 42.1272 152.442 42.2978C152.207 42.4684 152.024 42.7136 151.89 43.0335C151.757 43.3533 151.69 43.7345 151.69 44.177C151.69 44.6195 151.757 45.0007 151.89 45.3205C152.024 45.6404 152.207 45.8856 152.442 46.0562C152.677 46.2268 152.948 46.3121 153.258 46.3121ZM157.313 44.049C157.063 44.049 156.836 43.9931 156.633 43.8811C156.436 43.7692 156.279 43.6119 156.162 43.4093C156.044 43.2014 155.986 42.9535 155.986 42.6656C155.986 42.3831 156.044 42.1405 156.162 41.9379C156.279 41.73 156.439 41.5701 156.641 41.4581C156.844 41.3462 157.071 41.2902 157.321 41.2902C157.566 41.2902 157.788 41.3462 157.985 41.4581C158.187 41.5701 158.347 41.73 158.465 41.9379C158.582 42.1405 158.641 42.3831 158.641 42.6656C158.641 42.9535 158.582 43.2014 158.465 43.4093C158.347 43.6119 158.187 43.7692 157.985 43.8811C157.788 43.9931 157.564 44.049 157.313 44.049ZM156.913 46.9758L160.12 41.3782H160.952L157.753 46.9758H156.913ZM157.313 43.4413C157.484 43.4413 157.63 43.3773 157.753 43.2494C157.881 43.1161 157.945 42.9215 157.945 42.6656C157.945 42.4097 157.884 42.2178 157.761 42.0899C157.638 41.9566 157.489 41.8899 157.313 41.8899C157.143 41.8899 156.993 41.9566 156.865 42.0899C156.737 42.2178 156.673 42.4097 156.673 42.6656C156.673 42.9215 156.735 43.1161 156.857 43.2494C156.985 43.3773 157.137 43.4413 157.313 43.4413ZM160.6 47.0718C160.349 47.0718 160.123 47.0158 159.92 46.9039C159.723 46.7919 159.566 46.6346 159.448 46.4321C159.331 46.2241 159.272 45.9762 159.272 45.6884C159.272 45.4058 159.331 45.1606 159.448 44.9527C159.566 44.7448 159.725 44.5848 159.928 44.4729C160.131 44.3609 160.357 44.3049 160.608 44.3049C160.853 44.3049 161.074 44.3609 161.272 44.4729C161.474 44.5848 161.634 44.7448 161.751 44.9527C161.869 45.1606 161.927 45.4058 161.927 45.6884C161.927 45.9762 161.869 46.2241 161.751 46.4321C161.634 46.6346 161.474 46.7919 161.272 46.9039C161.074 47.0158 160.85 47.0718 160.6 47.0718ZM160.6 46.456C160.77 46.456 160.917 46.3921 161.04 46.2641C161.168 46.1362 161.232 45.9443 161.232 45.6884C161.232 45.4325 161.17 45.2406 161.048 45.1126C160.925 44.9793 160.776 44.9127 160.6 44.9127C160.429 44.9127 160.28 44.9793 160.152 45.1126C160.024 45.2406 159.96 45.4325 159.96 45.6884C159.96 45.9443 160.021 46.1362 160.144 46.2641C160.272 46.3921 160.424 46.456 160.6 46.456Z" fill="#0E803B"/>
</svg>
