<svg width="26" height="26" viewBox="0 0 26 26" fill="none" xmlns="http://www.w3.org/2000/svg">
<path d="M22.1529 21.2834L15.9576 11.5538L22.0229 4.88211C22.2357 4.6422 22.3454 4.32808 22.3282 4.00784C22.3109 3.6876 22.1682 3.38706 21.9308 3.17137C21.6935 2.95569 21.3807 2.84224 21.0603 2.85563C20.7399 2.86901 20.4376 3.00816 20.2191 3.24289L14.6058 9.42195L10.7779 3.40844C10.6679 3.23547 10.516 3.09305 10.3364 2.99434C10.1567 2.89564 9.95505 2.84384 9.75006 2.84375H4.87506C4.65674 2.84385 4.44246 2.90259 4.25461 3.01384C4.06675 3.12509 3.91223 3.28475 3.8072 3.47614C3.70216 3.66753 3.65046 3.88362 3.65751 4.10183C3.66455 4.32004 3.73008 4.53235 3.84725 4.71656L10.0426 14.4463L3.97319 21.1179C3.8633 21.2359 3.77793 21.3746 3.72203 21.5259C3.66613 21.6772 3.64081 21.8381 3.64755 21.9992C3.65428 22.1603 3.69293 22.3185 3.76125 22.4646C3.82957 22.6107 3.92621 22.7418 4.04557 22.8503C4.16492 22.9587 4.30462 23.0424 4.45656 23.0965C4.6085 23.1506 4.76966 23.174 4.93071 23.1653C5.09175 23.1566 5.24948 23.1161 5.39474 23.046C5.54 22.976 5.66991 22.8778 5.77694 22.7571L11.3944 16.578L15.2222 22.5916C15.3323 22.7645 15.4841 22.907 15.6638 23.0057C15.8434 23.1044 16.0451 23.1562 16.2501 23.1562H21.1251C21.3434 23.1561 21.5577 23.0974 21.7455 22.9862C21.9334 22.8749 22.0879 22.7153 22.1929 22.5239C22.298 22.3325 22.3497 22.1164 22.3426 21.8982C22.3356 21.68 22.27 21.4677 22.1529 21.2834ZM16.9194 20.7188L7.09522 5.28125H9.08077L18.9049 20.7188H16.9194Z" fill="#7551DC"/>
</svg>
